<svg width="320" height="280" viewBox="0 0 320 280" xmlns="http://www.w3.org/2000/svg">
  <defs>
    <linearGradient id="learningBg" x1="0%" y1="0%" x2="100%" y2="100%">
      <stop offset="0%" stop-color="#0F766E" />
      <stop offset="100%" stop-color="#14B8A6" />
    </linearGradient>
    <linearGradient id="screenGradient" x1="0%" y1="0%" x2="100%" y2="100%">
      <stop offset="0%" stop-color="#ECFEFF" />
      <stop offset="100%" stop-color="#CCFBF1" />
    </linearGradient>
    <linearGradient id="glowGradient" x1="0%" y1="0%" x2="0%" y2="100%">
      <stop offset="0%" stop-color="#99F6E4" stop-opacity="0.9" />
      <stop offset="100%" stop-color="#0F172A" stop-opacity="0" />
    </linearGradient>
  </defs>
  <rect width="320" height="280" rx="32" fill="url(#learningBg)" />
  <ellipse cx="160" cy="214" rx="110" ry="28" fill="#0D9488" opacity="0.4" />
  <g transform="translate(52 48)">
    <rect x="0" y="24" width="216" height="132" rx="20" fill="url(#screenGradient)" />
    <rect x="16" y="42" width="184" height="90" rx="14" fill="#F8FAFC" />
    <path d="M32 82 C44 68 64 68 76 82 C88 94 108 94 120 82 C132 70 152 70 164 82" fill="none" stroke="#0EA5E9" stroke-width="4" stroke-linecap="round" stroke-linejoin="round" />
    <rect x="84" y="124" width="48" height="12" rx="6" fill="#0EA5E9" opacity="0.6" />
    <rect x="70" y="150" width="76" height="8" rx="4" fill="#1E293B" opacity="0.25" />
    <path d="M108 0 L128 24 H88 Z" fill="#14B8A6" opacity="0.85" />
  </g>
  <g transform="translate(210 52)">
    <circle cx="22" cy="22" r="22" fill="#F0FDFA" opacity="0.45" />
    <path d="M22 8 L36 28 H8 Z" fill="#0EA5E9" />
  </g>
  <rect x="96" y="182" width="128" height="32" rx="16" fill="url(#glowGradient)" />
  <circle cx="68" cy="72" r="8" fill="#5EEAD4" opacity="0.5" />
  <circle cx="250" cy="68" r="12" fill="#22D3EE" opacity="0.35" />
</svg>
