<svg width="320" height="280" viewBox="0 0 320 280" xmlns="http://www.w3.org/2000/svg">
  <defs>
    <linearGradient id="guardianBg" x1="0%" y1="0%" x2="100%" y2="100%">
      <stop offset="0%" stop-color="#1D4ED8" />
      <stop offset="100%" stop-color="#3B82F6" />
    </linearGradient>
    <linearGradient id="towerGradient" x1="0%" y1="0%" x2="0%" y2="100%">
      <stop offset="0%" stop-color="#F8FAFC" />
      <stop offset="100%" stop-color="#E2E8F0" />
    </linearGradient>
    <linearGradient id="signalGradient" x1="0%" y1="0%" x2="100%" y2="0%">
      <stop offset="0%" stop-color="#A855F7" stop-opacity="0.6" />
      <stop offset="100%" stop-color="#38BDF8" stop-opacity="0" />
    </linearGradient>
  </defs>
  <rect width="320" height="280" rx="32" fill="url(#guardianBg)" />
  <ellipse cx="162" cy="214" rx="116" ry="30" fill="#1E3A8A" opacity="0.35" />
  <g transform="translate(82 52)">
    <rect x="62" y="32" width="96" height="140" rx="28" fill="url(#towerGradient)" />
    <rect x="90" y="54" width="40" height="96" rx="14" fill="#1D4ED8" opacity="0.12" />
    <path d="M110 11 L124 32 H96 Z" fill="#0EA5E9" opacity="0.75" />
    <rect x="74" y="104" width="72" height="20" rx="10" fill="#0EA5E9" />
    <rect x="98" y="84" width="24" height="12" rx="6" fill="#1D4ED8" opacity="0.6" />
    <path d="M110 136 L154 176 H66 Z" fill="#1E3A8A" opacity="0.55" />
  </g>
  <g transform="translate(48 36)">
    <path d="M0 60 C40 20 112 20 152 60" fill="none" stroke="url(#signalGradient)" stroke-width="10" stroke-linecap="round" />
    <path d="M16 92 C52 56 100 56 136 92" fill="none" stroke="url(#signalGradient)" stroke-width="10" stroke-linecap="round" />
  </g>
  <circle cx="64" cy="78" r="10" fill="#38BDF8" opacity="0.45" />
  <circle cx="246" cy="64" r="14" fill="#A855F7" opacity="0.35" />
  <circle cx="112" cy="32" r="6" fill="#C4B5FD" opacity="0.65" />
</svg>
